<?xml version="1.0" standalone="no"?>
<!DOCTYPE svg PUBLIC "-//W3C//DTD SVG 20010904//EN"
 "http://www.w3.org/TR/2001/REC-SVG-20010904/DTD/svg10.dtd">
<svg version="1.0" xmlns="http://www.w3.org/2000/svg"
 width="480.000000pt" height="480.000000pt" viewBox="0 0 480.000000 480.000000"
 preserveAspectRatio="xMidYMid meet">
<metadata>
Created by potrace 1.14, written by Peter Selinger 2001-2017
</metadata>
<g transform="translate(0.000000,480.000000) scale(0.100000,-0.100000)"
fill="#000000" stroke="none">
<path d="M709 4775 c-1 -14 -2 -28 -3 -32 -1 -5 -6 -24 -10 -43 -5 -19 -13
-44 -19 -55 -6 -11 -11 -23 -12 -26 0 -4 -19 -29 -43 -56 -49 -58 -125 -99
-200 -109 l-52 -7 0 -1366 c0 -1411 0 -1426 39 -1523 6 -16 9 -28 6 -28 -7 0
65 -200 96 -267 16 -34 29 -66 29 -71 0 -5 7 -15 15 -22 8 -7 15 -21 15 -31 0
-11 5 -19 10 -19 6 0 10 -6 10 -12 0 -7 23 -48 50 -91 28 -43 50 -81 50 -84 0
-3 8 -13 18 -22 10 -9 26 -29 36 -46 66 -104 278 -323 406 -419 30 -22 57 -43
60 -47 3 -3 48 -34 100 -68 209 -138 516 -263 730 -296 14 -2 39 -6 55 -9 125
-22 392 -29 528 -13 72 8 302 51 302 57 0 1 7 3 15 5 96 18 510 202 510 226 0
5 5 9 11 9 22 0 227 152 301 222 16 16 33 28 38 28 4 0 10 4 12 9 2 5 40 48
86 95 45 47 82 90 82 95 0 6 4 11 9 11 4 0 28 27 52 61 24 33 54 73 66 87 13
15 23 33 23 40 0 6 4 12 8 12 5 0 14 10 20 23 6 12 26 49 45 82 18 33 40 71
47 85 7 14 17 32 22 40 4 8 11 22 14 30 3 8 12 30 20 48 8 17 20 47 28 65 23
53 69 200 70 222 1 11 3 22 6 25 27 25 30 165 30 1482 l0 1355 -63 5 c-138 11
-241 93 -293 233 -6 18 -11 61 -13 118 -1 16 -88 17 -1681 17 l-1680 0 -1 -25z"/>
</g>
</svg>
